<svg width="11" height="11" viewBox="0 0 11 11" fill="none" xmlns="http://www.w3.org/2000/svg">
<g clip-path="url(#clip0_1_25)">
<path fill-rule="evenodd" clip-rule="evenodd" d="M0.666538 1.5C0.666538 1.13181 0.965015 0.833332 1.3332 0.833332H9.99987C10.3681 0.833332 10.6665 1.13181 10.6665 1.5C10.6665 1.86819 10.3681 2.16667 9.99987 2.16667H1.3332C0.965015 2.16667 0.666538 1.86819 0.666538 1.5Z" fill="black"/>
<path fill-rule="evenodd" clip-rule="evenodd" d="M0.666538 5.5C0.666538 5.13181 0.965015 4.83334 1.3332 4.83334H9.99987C10.3681 4.83334 10.6665 5.13181 10.6665 5.5C10.6665 5.86819 10.3681 6.16667 9.99987 6.16667H1.3332C0.965015 6.16667 0.666538 5.86819 0.666538 5.5Z" fill="black"/>
<path fill-rule="evenodd" clip-rule="evenodd" d="M0.666538 9.5C0.666538 9.13181 0.965015 8.83334 1.3332 8.83334H9.99987C10.3681 8.83334 10.6665 9.13181 10.6665 9.5C10.6665 9.86819 10.3681 10.1667 9.99987 10.1667H1.3332C0.965015 10.1667 0.666538 9.86819 0.666538 9.5Z" fill="black"/>
</g>
<defs>
<clipPath id="clip0_1_25">
<rect width="11" height="11" fill="white"/>
</clipPath>
</defs>
</svg>
