<svg width="26" height="33" viewBox="0 0 26 33" fill="none" xmlns="http://www.w3.org/2000/svg">
<path fill-rule="evenodd" clip-rule="evenodd" d="M6.61611 0.250001L14.6668 0.250001C14.9984 0.250001 15.3163 0.381697 15.5507 0.616118L25.5507 10.6161C25.7851 10.8505 25.9168 11.1685 25.9168 11.5V26.2174C25.9168 27.1077 25.9169 27.8507 25.8673 28.4578C25.8155 29.0909 25.7037 29.6854 25.4173 30.2475C24.9779 31.1099 24.2767 31.811 23.4143 32.2504C22.8522 32.5369 22.2578 32.6487 21.6246 32.7004C21.0175 32.75 20.2744 32.75 19.3842 32.75H6.61617C5.72589 32.75 4.98278 32.75 4.37571 32.7004C3.74257 32.6487 3.14815 32.5369 2.58604 32.2504C1.72363 31.811 1.02247 31.1099 0.583051 30.2475C0.296644 29.6854 0.184792 29.0909 0.133063 28.4578C0.0834643 27.8507 0.0834791 27.1077 0.0834968 26.2174V6.78261C0.0834791 5.89235 0.0834643 5.14927 0.133063 4.54222C0.184792 3.90908 0.296644 3.31465 0.583051 2.75254C1.02247 1.89014 1.72363 1.18897 2.58604 0.749555C3.14815 0.463148 3.74257 0.351296 4.37571 0.299567C4.98277 0.249968 5.72585 0.249983 6.61611 0.250001ZM4.57929 2.79126C4.10075 2.83036 3.87195 2.90017 3.72102 2.97707C3.32901 3.17681 3.0103 3.49552 2.81057 3.88752C2.73366 4.03846 2.66386 4.26726 2.62476 4.7458C2.58447 5.23893 2.5835 5.87929 2.5835 6.83333V26.1667C2.5835 27.1207 2.58447 27.7611 2.62476 28.2542C2.66386 28.7327 2.73366 28.9615 2.81057 29.1125C3.0103 29.5045 3.32901 29.8232 3.72102 30.0229C3.87195 30.0998 4.10075 30.1696 4.57929 30.2087C5.07243 30.249 5.71278 30.25 6.66683 30.25H19.3335C20.2875 30.25 20.9279 30.249 21.421 30.2087C21.8996 30.1696 22.1284 30.0998 22.2793 30.0229C22.6713 29.8232 22.99 29.5045 23.1898 29.1125C23.2667 28.9615 23.3365 28.7327 23.3756 28.2542C23.4159 27.7611 23.4168 27.1207 23.4168 26.1667V12.75H16.3335C14.7227 12.75 13.4168 11.4442 13.4168 9.83333V2.75H6.66683C5.71278 2.75 5.07243 2.75097 4.57929 2.79126ZM15.9168 4.51777L21.6491 10.25H16.3335C16.1034 10.25 15.9168 10.0635 15.9168 9.83333V4.51777Z" fill="black"/>
</svg>
