<svg width="28" height="28" viewBox="0 0 28 28" fill="none" xmlns="http://www.w3.org/2000/svg">
<path d="M23.7233 5.81153L18.4502 0.822828C17.8893 0.292195 17.1552 0 16.3831 0H6.34375C4.68524 0 3.33594 1.3493 3.33594 3.00781V24.9922C3.33594 26.6507 4.68524 28 6.34375 28H21.6562C23.3148 28 24.6641 26.6507 24.6641 24.9922V7.99652C24.6641 7.17352 24.3212 6.37711 23.7233 5.81153ZM22.1299 6.5625H18.0469C17.8961 6.5625 17.7734 6.43984 17.7734 6.28906V2.44103L22.1299 6.5625ZM21.6562 26.3594H6.34375C5.58988 26.3594 4.97656 25.7461 4.97656 24.9922V3.00781C4.97656 2.25395 5.58988 1.64062 6.34375 1.64062H16.1328V6.28906C16.1328 7.34448 16.9915 8.20312 18.0469 8.20312H23.0234V24.9922C23.0234 25.7461 22.4101 26.3594 21.6562 26.3594Z" fill="black"/>
<path d="M19.8516 10.9375H7.82031C7.36728 10.9375 7 11.3048 7 11.7578C7 12.2108 7.36728 12.5781 7.82031 12.5781H19.8516C20.3046 12.5781 20.6719 12.2108 20.6719 11.7578C20.6719 11.3048 20.3046 10.9375 19.8516 10.9375ZM19.8516 15.3125H7.82031C7.36728 15.3125 7 15.6798 7 16.1328C7 16.5858 7.36728 16.9531 7.82031 16.9531H19.8516C20.3046 16.9531 20.6719 16.5858 20.6719 16.1328C20.6719 15.6798 20.3046 15.3125 19.8516 15.3125ZM11.7972 19.6875H7.82031C7.36728 19.6875 7 20.0548 7 20.5078C7 20.9608 7.36728 21.3281 7.82031 21.3281H11.7972C12.2502 21.3281 12.6175 20.9608 12.6175 20.5078C12.6175 20.0548 12.2502 19.6875 11.7972 19.6875Z" fill="black"/>
</svg>
