<svg width="13" height="13" viewBox="0 0 13 13" fill="none" xmlns="http://www.w3.org/2000/svg">
<path d="M6.125 1.10693C7.74849 1.10693 7.96988 1.10693 8.63404 1.10693C9.2244 1.10693 9.51958 1.25452 9.74096 1.32831C10.0361 1.4759 10.2575 1.5497 10.4789 1.77108C10.7003 1.99247 10.8479 2.21386 10.9217 2.50904C10.9955 2.73042 11.0693 3.0256 11.1431 3.61596C11.1431 4.28012 11.1431 4.42771 11.1431 6.125C11.1431 7.82229 11.1431 7.96988 11.1431 8.63404C11.1431 9.2244 10.9955 9.51958 10.9217 9.74096C10.7741 10.0361 10.7003 10.2575 10.4789 10.4789C10.2575 10.7003 10.0361 10.8479 9.74096 10.9217C9.51958 10.9955 9.2244 11.0693 8.63404 11.1431C7.96988 11.1431 7.82229 11.1431 6.125 11.1431C4.42771 11.1431 4.28012 11.1431 3.61596 11.1431C3.0256 11.1431 2.73042 10.9955 2.50904 10.9217C2.21386 10.7741 1.99247 10.7003 1.77108 10.4789C1.5497 10.2575 1.40211 10.0361 1.32831 9.74096C1.25452 9.51958 1.18072 9.2244 1.10693 8.63404C1.10693 7.96988 1.10693 7.82229 1.10693 6.125C1.10693 4.42771 1.10693 4.28012 1.10693 3.61596C1.10693 3.0256 1.25452 2.73042 1.32831 2.50904C1.4759 2.21386 1.5497 1.99247 1.77108 1.77108C1.99247 1.5497 2.21386 1.40211 2.50904 1.32831C2.73042 1.25452 3.0256 1.18072 3.61596 1.10693C4.28012 1.10693 4.50151 1.10693 6.125 1.10693ZM6.125 0C4.42771 0 4.28012 0 3.61596 0C2.95181 0 2.50904 0.147591 2.14006 0.295181C1.77108 0.442772 1.40211 0.664157 1.03313 1.03313C0.664157 1.40211 0.516567 1.69729 0.295181 2.14006C0.147591 2.50904 0.0737952 2.95181 0 3.61596C0 4.28012 0 4.50151 0 6.125C0 7.82229 0 7.96988 0 8.63404C0 9.29819 0.147591 9.74096 0.295181 10.1099C0.442772 10.4789 0.664157 10.8479 1.03313 11.2169C1.40211 11.5858 1.69729 11.7334 2.14006 11.9548C2.50904 12.1024 2.95181 12.1762 3.61596 12.25C4.28012 12.25 4.50151 12.25 6.125 12.25C7.74849 12.25 7.96988 12.25 8.63404 12.25C9.29819 12.25 9.74096 12.1024 10.1099 11.9548C10.4789 11.8072 10.8479 11.5858 11.2169 11.2169C11.5858 10.8479 11.7334 10.5527 11.9548 10.1099C12.1024 9.74096 12.1762 9.29819 12.25 8.63404C12.25 7.96988 12.25 7.74849 12.25 6.125C12.25 4.50151 12.25 4.28012 12.25 3.61596C12.25 2.95181 12.1024 2.50904 11.9548 2.14006C11.8072 1.77108 11.5858 1.40211 11.2169 1.03313C10.8479 0.664157 10.5527 0.516567 10.1099 0.295181C9.74096 0.147591 9.29819 0.0737952 8.63404 0C7.96988 0 7.82229 0 6.125 0Z" fill="black"/>
<path d="M6.125 2.95181C4.35392 2.95181 2.95181 4.35392 2.95181 6.125C2.95181 7.89609 4.35392 9.29819 6.125 9.29819C7.89609 9.29819 9.29819 7.89609 9.29819 6.125C9.29819 4.35392 7.89609 2.95181 6.125 2.95181ZM6.125 8.19127C5.01807 8.19127 4.05874 7.30572 4.05874 6.125C4.05874 5.01807 4.94428 4.05874 6.125 4.05874C7.23193 4.05874 8.19127 4.94428 8.19127 6.125C8.19127 7.23193 7.23193 8.19127 6.125 8.19127Z" fill="black"/>
<path d="M9.37199 3.61596C9.77955 3.61596 10.1099 3.28557 10.1099 2.87801C10.1099 2.47045 9.77955 2.14006 9.37199 2.14006C8.96443 2.14006 8.63404 2.47045 8.63404 2.87801C8.63404 3.28557 8.96443 3.61596 9.37199 3.61596Z" fill="black"/>
</svg>
