<svg width="16" height="16" viewBox="0 0 16 16" fill="none" xmlns="http://www.w3.org/2000/svg">
<path fill-rule="evenodd" clip-rule="evenodd" d="M13.7406 1.29629L1.74527 5.62792C1.72571 5.63499 1.70646 5.64286 1.68755 5.65152C1.2906 5.83343 1.03609 6.23002 1.03609 6.66667C1.03609 7.09793 1.28435 7.49012 1.67292 7.67499L6.10765 9.89236L8.32501 14.3271C8.50988 14.7157 8.90207 14.9639 9.33333 14.9639C9.76999 14.9639 10.1666 14.7094 10.3485 14.3125C10.3571 14.2936 10.365 14.2743 10.3721 14.2547L14.7037 2.25951C14.718 2.22081 14.7291 2.18088 14.7369 2.14014C14.7531 2.0553 14.7542 1.97007 14.7417 1.88775C14.7329 1.83021 14.7175 1.77409 14.696 1.72051C14.6572 1.62377 14.6003 1.53932 14.5306 1.46969C14.4609 1.39987 14.3764 1.34285 14.2795 1.30402C14.235 1.28614 14.1888 1.27249 14.1415 1.26336C14.0562 1.24687 13.9705 1.24571 13.8877 1.25831C13.8373 1.26598 13.788 1.27876 13.7406 1.29629ZM12.7519 3.24811L3.12559 6.72428L7.00208 8.66252C7.14722 8.73509 7.26492 8.85278 7.33749 8.99793L9.27573 12.8744L12.7519 3.24811Z" fill="black"/>
</svg>
