<svg width="24" height="25" viewBox="0 0 24 25" fill="none" xmlns="http://www.w3.org/2000/svg">
<path d="M9 11.3251C9 12.1208 9.31607 12.8839 9.87868 13.4465C10.4413 14.0091 11.2044 14.3251 12 14.3251C12.7956 14.3251 13.5587 14.0091 14.1213 13.4465C14.6839 12.8839 15 12.1208 15 11.3251C15 10.5295 14.6839 9.76644 14.1213 9.20383C13.5587 8.64122 12.7956 8.32515 12 8.32515C11.2044 8.32515 10.4413 8.64122 9.87868 9.20383C9.31607 9.76644 9 10.5295 9 11.3251Z" stroke="#33B34A" stroke-width="2" stroke-linecap="round" stroke-linejoin="round"/>
<path d="M17.657 16.9821L13.414 21.2251C13.039 21.5998 12.5306 21.8102 12.0005 21.8102C11.4704 21.8102 10.962 21.5998 10.587 21.2251L6.343 16.9821C5.22422 15.8633 4.46234 14.4378 4.15369 12.886C3.84504 11.3342 4.00349 9.72566 4.60901 8.26388C5.21452 6.80209 6.2399 5.55269 7.55548 4.67365C8.87107 3.79462 10.4178 3.32544 12 3.32544C13.5822 3.32544 15.1289 3.79462 16.4445 4.67365C17.7601 5.55269 18.7855 6.80209 19.391 8.26388C19.9965 9.72566 20.155 11.3342 19.8463 12.886C19.5377 14.4378 18.7758 15.8633 17.657 16.9821Z" stroke="#33B34A" stroke-width="2" stroke-linecap="round" stroke-linejoin="round"/>
</svg>
