<svg width="16" height="16" viewBox="0 0 16 16" fill="none" xmlns="http://www.w3.org/2000/svg">
<path fill-rule="evenodd" clip-rule="evenodd" d="M14.6944 3.45935C14.9568 3.53498 15.1573 3.74719 15.2179 4.01338C15.3532 4.60687 15.4167 5.26462 15.4167 5.99999V9.99999C15.4167 11.7414 15.0728 13.1526 14.1194 14.1146C13.9789 14.2563 13.7878 14.3362 13.5883 14.3367C13.3888 14.3371 13.1974 14.2581 13.0563 14.117L8.803 9.86366C8.66235 9.723 8.58333 9.53224 8.58333 9.33333C8.58333 9.13441 8.66235 8.94365 8.803 8.803L13.9563 3.64967C14.1494 3.45661 14.4321 3.38372 14.6944 3.45935ZM10.394 9.33333L13.492 12.4313C13.7636 11.8748 13.9167 11.0963 13.9167 9.99999V5.99999C13.9167 5.93639 13.9161 5.87382 13.9151 5.81227L10.394 9.33333Z" fill="black"/>
<path fill-rule="evenodd" clip-rule="evenodd" d="M2.947 2.94699C2.40646 3.48752 2.08333 4.4073 2.08333 6V10C2.08333 11.2567 2.28628 12.0995 2.63939 12.6621C2.91917 13.1078 3.33098 13.4372 3.95875 13.6472L13.6473 3.95876C13.4372 3.33099 13.1078 2.91917 12.6621 2.63939C12.0996 2.28628 11.2567 2.08333 10 2.08333H6C4.4073 2.08333 3.48753 2.40646 2.947 2.94699ZM1.88634 1.88633C2.8458 0.926863 4.25936 0.583328 6 0.583328H10C11.3833 0.583328 12.5538 0.80038 13.4596 1.36893C14.396 1.95675 14.9531 2.85821 15.2177 4.01242C15.2754 4.26409 15.1996 4.52775 15.017 4.71033L4.71032 15.017C4.52774 15.1996 4.26409 15.2754 4.01241 15.2177C2.85821 14.9531 1.95674 14.396 1.36893 13.4596C0.800381 12.5538 0.583332 11.3833 0.583332 10V6C0.583332 4.25936 0.926867 2.8458 1.88634 1.88633Z" fill="black"/>
<path fill-rule="evenodd" clip-rule="evenodd" d="M8.803 8.803C9.0959 8.5101 9.57077 8.51011 9.86366 8.803L14.117 13.0563C14.2581 13.1974 14.3371 13.3888 14.3367 13.5883C14.3362 13.7878 14.2563 13.9789 14.1146 14.1193C13.1526 15.0728 11.7414 15.4167 10 15.4167H6C5.26462 15.4167 4.60686 15.3531 4.01338 15.2179C3.74718 15.1573 3.53497 14.9568 3.45934 14.6944C3.38371 14.4321 3.45661 14.1494 3.64966 13.9563L8.803 8.803ZM5.81226 13.9151C5.87382 13.9161 5.93639 13.9167 6 13.9167H10C11.0963 13.9167 11.8749 13.7636 12.4313 13.492L9.33333 10.394L5.81226 13.9151Z" fill="black"/>
<path fill-rule="evenodd" clip-rule="evenodd" d="M6.08 4.605C5.50737 4.605 5.02261 4.92064 4.89057 5.48955L4.8905 5.48988C4.72108 6.21838 5.17049 6.92814 5.76835 7.49478C5.9482 7.66386 6.22043 7.65853 6.38824 7.49802L6.39084 7.49553L6.39085 7.49553C6.98507 6.93258 7.43411 6.22052 7.26899 5.48771C7.13634 4.91996 6.652 4.605 6.08 4.605ZM6.08 3.105C7.20071 3.105 8.40928 3.76602 8.73058 5.15044L8.73144 5.15415L8.73143 5.15415C9.08491 6.71306 8.09562 7.94638 7.4237 8.58329C6.6716 9.30131 5.49186 9.29569 4.73883 8.58569L4.73753 8.58446C4.06916 7.95128 3.06579 6.7148 3.42941 5.15044M6.08 3.105C4.95937 3.105 3.7509 3.76591 3.42949 5.15011Z" fill="black"/>
<path fill-rule="evenodd" clip-rule="evenodd" d="M5.31307 5.8C5.31307 5.38579 5.64886 5.05 6.06307 5.05H6.06906C6.48327 5.05 6.81906 5.38579 6.81906 5.8C6.81906 6.21422 6.48327 6.55 6.06906 6.55H6.06307C5.64886 6.55 5.31307 6.21422 5.31307 5.8Z" fill="black"/>
</svg>
