<svg width="24" height="24" viewBox="0 0 24 24" fill="none" xmlns="http://www.w3.org/2000/svg">
<path fill-rule="evenodd" clip-rule="evenodd" d="M5 4.75C4.66848 4.75 4.35054 4.8817 4.11612 5.11612C3.8865 5.34573 3.75544 5.65547 3.75017 5.97962C3.98167 9.68818 5.5593 13.185 8.18716 15.8128C10.815 18.4407 14.3118 20.0183 18.0204 20.2498C18.3445 20.2446 18.6543 20.1135 18.8839 19.8839C19.1183 19.6495 19.25 19.3315 19.25 19V15.5078L15.3145 13.9336L14.1431 15.8859C13.9423 16.2206 13.5183 16.3453 13.1683 16.1726C10.8487 15.0287 8.97133 13.1513 7.82735 10.8317C7.65471 10.4817 7.77943 10.0577 8.11413 9.85688L10.0664 8.6855L8.49223 4.75H5ZM3.05546 4.05546C3.57118 3.53973 4.27065 3.25 5 3.25H9C9.30668 3.25 9.58246 3.43671 9.69636 3.72146L11.6964 8.72146C11.8331 9.06324 11.7015 9.45373 11.3859 9.64312L9.49809 10.7758C10.3941 12.3212 11.6788 13.6059 13.2242 14.5019L14.3569 12.6141C14.5463 12.2985 14.9368 12.1669 15.2785 12.3036L20.2785 14.3036C20.5633 14.4175 20.75 14.6933 20.75 15V19C20.75 19.7293 20.4603 20.4288 19.9445 20.9445C19.4288 21.4603 18.7293 21.75 18 21.75C17.9848 21.75 17.9697 21.7495 17.9545 21.7486C13.8709 21.5005 10.0194 19.7664 7.1265 16.8735C4.23364 13.9806 2.49954 10.1291 2.25138 6.04549C2.25046 6.03035 2.25 6.01518 2.25 6C2.25 5.27065 2.53973 4.57118 3.05546 4.05546Z" fill="black"/>
</svg>
