<svg width="20" height="20" viewBox="0 0 20 20" fill="none" xmlns="http://www.w3.org/2000/svg">
<path fill-rule="evenodd" clip-rule="evenodd" d="M9.58334 2.41667C5.6253 2.41667 2.41667 5.6253 2.41667 9.58334C2.41667 13.5414 5.6253 16.75 9.58334 16.75C13.5414 16.75 16.75 13.5414 16.75 9.58334C16.75 5.6253 13.5414 2.41667 9.58334 2.41667ZM0.916672 9.58334C0.916672 4.79687 4.79687 0.916672 9.58334 0.916672C14.3698 0.916672 18.25 4.79687 18.25 9.58334C18.25 14.3698 14.3698 18.25 9.58334 18.25C4.79687 18.25 0.916672 14.3698 0.916672 9.58334Z" fill="black"/>
<path fill-rule="evenodd" clip-rule="evenodd" d="M16.1363 16.1363C16.4292 15.8434 16.9041 15.8434 17.197 16.1363L18.8637 17.803C19.1566 18.0959 19.1566 18.5708 18.8637 18.8637C18.5708 19.1566 18.0959 19.1566 17.803 18.8637L16.1363 17.197C15.8434 16.9041 15.8434 16.4292 16.1363 16.1363Z" fill="black"/>
</svg>
