<svg width="13" height="10" viewBox="0 0 13 10" fill="none" xmlns="http://www.w3.org/2000/svg">
<path d="M0.842124 4.14354C4.13045 2.78524 6.32318 1.88976 7.42032 1.45712C10.5529 0.221815 11.2038 0.00722996 11.6281 6.86943e-05C11.7214 -0.00141418 11.93 0.0205106 12.0652 0.124481C12.1793 0.212271 12.2107 0.330863 12.2257 0.414097C12.2407 0.497332 12.2594 0.686943 12.2446 0.835099C12.0748 2.52613 11.3403 6.62982 10.9666 8.52381C10.8085 9.32522 10.4971 9.59393 10.1957 9.62023C9.54067 9.67738 9.04325 9.2098 8.40881 8.81551C7.41603 8.19851 6.85517 7.81443 5.89151 7.21235C4.77782 6.51655 5.49978 6.13412 6.13446 5.50913C6.30056 5.34557 9.18671 2.85667 9.24257 2.63089C9.24956 2.60265 9.25604 2.4974 9.19009 2.44182C9.12413 2.38624 9.02679 2.40524 8.95654 2.42036C8.85697 2.44178 7.27099 3.43564 4.1986 5.40193C3.74843 5.695 3.34067 5.8378 2.97534 5.83032C2.57259 5.82207 1.79786 5.61442 1.22192 5.43692C0.515517 5.21922 -0.0459209 5.10412 0.00296768 4.73439C0.0284319 4.54181 0.308151 4.34486 0.842124 4.14354Z" fill="black"/>
</svg>
