<svg width="13" height="11" viewBox="0 0 13 11" fill="none" xmlns="http://www.w3.org/2000/svg">
<path d="M12.25 1.21154C11.7906 1.45385 11.3313 1.53462 10.7953 1.61538C11.3313 1.29231 11.7141 0.807692 11.8672 0.161538C11.4078 0.484615 10.8719 0.646154 10.2594 0.807692C9.8 0.323077 9.11094 0 8.42188 0C6.81406 0 5.58906 1.61538 5.97188 3.23077C3.90469 3.15 2.06719 2.1 0.765625 0.484616C0.0765625 1.69615 0.459375 3.23077 1.53125 4.03846C1.14844 4.03846 0.765625 3.87692 0.382812 3.71538C0.382812 4.92692 1.225 6.05769 2.37344 6.38077C1.99063 6.46154 1.60781 6.54231 1.225 6.46154C1.53125 7.51154 2.45 8.31923 3.59844 8.31923C2.67969 9.04615 1.30156 9.45 0 9.28846C1.14844 10.0154 2.45 10.5 3.82812 10.5C8.49844 10.5 11.1016 6.38077 10.9484 2.58462C11.4844 2.26154 11.9437 1.77692 12.25 1.21154Z" fill="black"/>
</svg>
