<svg width="14" height="10" viewBox="0 0 14 10" fill="none" xmlns="http://www.w3.org/2000/svg">
<path d="M12.8188 1.95313C12.6656 1.40625 12.2828 1.01563 11.7469 0.859375C10.8281 0.625 6.92343 0.625 6.92343 0.625C6.92343 0.625 3.09532 0.625 2.1 0.859375C1.56407 1.01563 1.18125 1.40625 1.02812 1.95313C0.874998 2.96875 0.875 5 0.875 5C0.875 5 0.875002 7.03125 1.10469 8.04687C1.25781 8.59375 1.64062 8.98437 2.17656 9.14062C3.09531 9.375 7 9.375 7 9.375C7 9.375 10.8281 9.375 11.8234 9.14062C12.3594 8.98437 12.7422 8.59375 12.8953 8.04687C13.125 7.03125 13.125 5 13.125 5C13.125 5 13.125 2.96875 12.8188 1.95313ZM5.775 6.875V3.125L8.99063 5L5.775 6.875Z" fill="black"/>
</svg>
